Coordinates
version=1
nRows=6
nColumns=34
inDegrees=yes

Units are S.I. units (second, meters, Newtons, ...)
If the header above contains a line with 'inDegrees', this indicates whether rotational values are in degrees (yes) or radians (no).

endheader
time	pelvis_tilt	pelvis_list	pelvis_rotation	pelvis_tx	pelvis_ty	pelvis_tz	hip_flexion_r	hip_adduction_r	hip_rotation_r	knee_angle_r	ankle_angle_r	subtalar_angle_r	mtp_angle_r	hip_flexion_l	hip_adduction_l	hip_rotation_l	knee_angle_l	ankle_angle_l	subtalar_angle_l	mtp_angle_l	lumbar_extension	lumbar_bending	lumbar_rotation	arm_flex_r	arm_add_r	arm_rot_r	elbow_flex_r	pro_sup_r	arm_flex_l	arm_add_l	arm_rot_l	elbow_flex_l	pro_sup_l
      0.00000000	     -1.05237663	      9.93047369	    -22.78493243	      0.08217339	      0.97915750	      0.03812899	     13.34768150	      1.79700922	     -3.05296231	     16.57653131	      9.66139190	    -14.53725984	      0.00000000	     23.09330516	     -9.09304396	     11.14129869	     29.43115446	     -6.54075348	    -16.30270260	      0.00000000	    -14.80600627	    -17.56979924	     15.94539209	      2.49843640	    -41.88181601	     36.87083452	     84.24968742	    115.35335640	      1.27406994	    -35.40501790	     31.86571606	     94.26335556	    119.74817918
      0.01666670	     -1.15212598	      9.98985613	    -22.60101455	      0.08370360	      0.97901754	      0.03736451	     13.34697651	      1.70996813	     -3.06321331	     16.49862479	      9.75466639	    -14.74385391	      0.00000000	     22.96985670	     -8.99276762	     10.92412768	     29.02314097	     -6.60701569	    -16.17241807	      0.00000000	    -14.60222241	    -17.41546585	     15.85840317	      2.34857990	    -41.94584603	     36.96497059	     84.43203765	    115.56851458	      1.14302928	    -35.28615196	     32.03431235	     94.39799320	    119.74817918
      0.03333330	     -1.48723018	      9.91232426	    -22.08363127	      0.08446906	      0.97862898	      0.03671436	     13.64863183	      1.84230407	     -3.35282483	     16.59401280	      9.78656473	    -14.98722821	      0.00000000	     22.48375496	     -9.26410472	     10.19938048	     27.43755636	     -6.10129747	    -16.23363085	      0.00000000	    -14.47591769	    -16.96546181	     15.51749573	      2.18249526	    -41.76102313	     36.96642166	     84.53877959	    115.77031035	      1.05422841	    -35.31122406	     31.96167799	     94.23928087	    119.74817918
      0.05000000	     -1.35979404	      9.73212161	    -21.87008373	      0.08704561	      0.97879250	      0.03613186	     13.40258231	      1.83274406	     -3.46864555	     16.81461585	      9.75196749	    -15.13987078	      0.00000000	     20.93755162	     -9.80578337	      7.61258922	     25.08694034	     -3.75033212	    -13.80129581	      0.00000000	    -14.42898302	    -16.49983367	     15.30816278	      2.22161387	    -41.78722895	     37.24771383	     84.32444039	    119.47167400	      0.33046546	    -34.99164041	     31.36568825	     93.89703891	    119.74817918
      0.06666670	     -1.53943387	      9.72923564	    -20.80491156	      0.09054643	      0.97803235	      0.03346501	     13.62355160	      1.50762808	     -4.40616539	     17.37060962	      9.95143533	    -15.75415017	      0.00000000	     19.54582161	     -9.60955131	      6.84050341	     21.97445790	     -2.33948011	    -13.40734361	      0.00000000	    -14.17869892	    -15.79057360	     14.65204389	      1.30652431	    -41.93130093	     36.66453815	     84.60291776	    119.74817918	     -0.41606173	    -34.56131543	     30.54979854	     93.67543836	    119.74817918
      0.08333330	     -1.37264694	      9.05076984	    -20.09524332	      0.09550974	      0.97764878	      0.03143494	     13.00589742	      1.72239335	     -5.61950472	     17.71282406	     10.93476275	    -15.06274136	      0.00000000	     17.26778548	    -10.23452343	      4.29609642	     18.62249299	      0.38781695	    -10.37636488	      0.00000000	    -14.18830066	    -14.48853514	     14.40776951	      0.31155350	    -42.36763189	     36.37635779	     84.90992680	    119.74817918	     -1.30526012	    -34.35027937	     30.03865317	     93.71377908	    119.74817918
